<svg width="17" height="17" viewBox="0 0 17 17" fill="none" xmlns="http://www.w3.org/2000/svg">
<g id="Group">
<path id="Vector" d="M7.58761 2.63934C7.66097 2.51345 7.76606 2.40899 7.8924 2.33639C8.01873 2.26379 8.1619 2.22559 8.30761 2.22559C8.45332 2.22559 8.59648 2.26379 8.72282 2.33639C8.84915 2.40899 8.95424 2.51345 9.02761 2.63934L10.8909 5.83801L14.5096 6.62201C14.6519 6.65294 14.7837 6.72064 14.8917 6.81836C14.9997 6.91609 15.0803 7.04042 15.1252 7.17896C15.1702 7.3175 15.1781 7.46542 15.1481 7.60796C15.1181 7.7505 15.0513 7.88269 14.9543 7.99134L12.4876 10.752L12.8609 14.4353C12.8757 14.5804 12.8521 14.7267 12.7926 14.8598C12.733 14.9929 12.6396 15.108 12.5217 15.1937C12.4038 15.2794 12.2654 15.3327 12.1204 15.3481C11.9755 15.3636 11.829 15.3408 11.6956 15.282L8.30761 13.7887L4.91961 15.282C4.78622 15.3408 4.63973 15.3636 4.49478 15.3481C4.34982 15.3327 4.21146 15.2794 4.09352 15.1937C3.97558 15.108 3.88218 14.9929 3.82265 14.8598C3.76312 14.7267 3.73955 14.5804 3.75427 14.4353L4.12761 10.752L1.66094 7.99201C1.56376 7.88336 1.49678 7.75112 1.46668 7.60849C1.43659 7.46586 1.44443 7.31783 1.48944 7.17918C1.53444 7.04053 1.61502 6.91611 1.72314 6.81834C1.83127 6.72057 1.96314 6.65288 2.10561 6.62201L5.72427 5.83801L7.58761 2.63934Z" fill="#F1B7C6"/>
</g>
</svg>
